<?xml version="1.0" encoding="utf-8"?>
<!-- Generator: Adobe Illustrator 28.1.0, SVG Export Plug-In . SVG Version: 6.00 Build 0)  -->
<svg version="1.1" id="Layer_1" xmlns="http://www.w3.org/2000/svg" xmlns:xlink="http://www.w3.org/1999/xlink" x="0px" y="0px"
	 viewBox="0 0 121 132" style="enable-background:new 0 0 121 132;" xml:space="preserve">
<style type="text/css">
	.st0{fill:#FFFFFF;}
</style>
<path d="M112.2,130H10.8C7,130,4,127,4,123.2V10.8C4,7,7,4,10.8,4h101.5c3.7,0,6.8,3,6.8,6.8v112.5C119,127,116,130,112.2,130z"/>
<path class="st0" d="M48.5,24h-33C11.9,24,9,21.1,9,17.5v0c0-3.6,2.9-6.5,6.5-6.5h33c3.6,0,6.5,2.9,6.5,6.5v0
	C55,21.1,52.1,24,48.5,24z"/>
<path class="st0" d="M112.5,37h-101c-0.8,0-1.5-0.7-1.5-1.5l0,0c0-0.8,0.7-1.5,1.5-1.5h101c0.8,0,1.5,0.7,1.5,1.5l0,0
	C114,36.3,113.3,37,112.5,37z"/>
<path class="st0" d="M112.5,42h-101c-0.8,0-1.5-0.7-1.5-1.5l0,0c0-0.8,0.7-1.5,1.5-1.5h101c0.8,0,1.5,0.7,1.5,1.5l0,0
	C114,41.3,113.3,42,112.5,42z"/>
<path class="st0" d="M112.5,47h-101c-0.8,0-1.5-0.7-1.5-1.5l0,0c0-0.8,0.7-1.5,1.5-1.5h101c0.8,0,1.5,0.7,1.5,1.5l0,0
	C114,46.3,113.3,47,112.5,47z"/>
<path class="st0" d="M112.5,52h-101c-0.8,0-1.5-0.7-1.5-1.5l0,0c0-0.8,0.7-1.5,1.5-1.5h101c0.8,0,1.5,0.7,1.5,1.5l0,0
	C114,51.3,113.3,52,112.5,52z"/>
<path class="st0" d="M112.5,65h-101c-0.8,0-1.5-0.7-1.5-1.5l0,0c0-0.8,0.7-1.5,1.5-1.5h101c0.8,0,1.5,0.7,1.5,1.5l0,0
	C114,64.3,113.3,65,112.5,65z"/>
<path class="st0" d="M112.5,70h-101c-0.8,0-1.5-0.7-1.5-1.5l0,0c0-0.8,0.7-1.5,1.5-1.5h101c0.8,0,1.5,0.7,1.5,1.5l0,0
	C114,69.3,113.3,70,112.5,70z"/>
<path class="st0" d="M112.5,75h-101c-0.8,0-1.5-0.7-1.5-1.5l0,0c0-0.8,0.7-1.5,1.5-1.5h101c0.8,0,1.5,0.7,1.5,1.5l0,0
	C114,74.3,113.3,75,112.5,75z"/>
<path class="st0" d="M112.5,88h-101c-0.8,0-1.5-0.7-1.5-1.5l0,0c0-0.8,0.7-1.5,1.5-1.5h101c0.8,0,1.5,0.7,1.5,1.5l0,0
	C114,87.3,113.3,88,112.5,88z"/>
<path class="st0" d="M112.5,93h-101c-0.8,0-1.5-0.7-1.5-1.5l0,0c0-0.8,0.7-1.5,1.5-1.5h101c0.8,0,1.5,0.7,1.5,1.5l0,0
	C114,92.3,113.3,93,112.5,93z"/>
<path class="st0" d="M112.5,98h-101c-0.8,0-1.5-0.7-1.5-1.5l0,0c0-0.8,0.7-1.5,1.5-1.5h101c0.8,0,1.5,0.7,1.5,1.5l0,0
	C114,97.3,113.3,98,112.5,98z"/>
<path class="st0" d="M112.5,103h-101c-0.8,0-1.5-0.7-1.5-1.5l0,0c0-0.8,0.7-1.5,1.5-1.5h101c0.8,0,1.5,0.7,1.5,1.5l0,0
	C114,102.3,113.3,103,112.5,103z"/>
<path class="st0" d="M112.5,117h-101c-0.8,0-1.5-0.7-1.5-1.5l0,0c0-0.8,0.7-1.5,1.5-1.5h101c0.8,0,1.5,0.7,1.5,1.5l0,0
	C114,116.3,113.3,117,112.5,117z"/>
</svg>
