<?xml version="1.0" encoding="utf-8"?>
<!-- Generator: Adobe Illustrator 28.1.0, SVG Export Plug-In . SVG Version: 6.00 Build 0)  -->
<svg version="1.1" id="Layer_1" xmlns="http://www.w3.org/2000/svg" xmlns:xlink="http://www.w3.org/1999/xlink" x="0px" y="0px"
	 viewBox="0 0 121 132" style="enable-background:new 0 0 121 132;" xml:space="preserve">
<style type="text/css">
	.st0{fill:#FFFFFF;}
</style>
<path d="M112.2,130H10.8C7,130,4,127,4,123.2V10.8C4,7,7,4,10.8,4h101.5c3.7,0,6.8,3,6.8,6.8v112.5C119,127,116,130,112.2,130z"/>
<path class="st0" d="M48.5,24h-33C11.9,24,9,21.1,9,17.5v0c0-3.6,2.9-6.5,6.5-6.5h33c3.6,0,6.5,2.9,6.5,6.5v0
	C55,21.1,52.1,24,48.5,24z"/>
<path class="st0" d="M110.5,41h-97c-1.9,0-3.5-1.6-3.5-3.5v0c0-1.9,1.6-3.5,3.5-3.5h97c1.9,0,3.5,1.6,3.5,3.5v0
	C114,39.4,112.4,41,110.5,41z"/>
<path class="st0" d="M110.5,52h-97c-1.9,0-3.5-1.6-3.5-3.5v0c0-1.9,1.6-3.5,3.5-3.5h97c1.9,0,3.5,1.6,3.5,3.5v0
	C114,50.4,112.4,52,110.5,52z"/>
<path class="st0" d="M110.5,72h-97c-1.9,0-3.5-1.6-3.5-3.5l0,0c0-1.9,1.6-3.5,3.5-3.5h97c1.9,0,3.5,1.6,3.5,3.5v0
	C114,70.4,112.4,72,110.5,72z"/>
<path class="st0" d="M110.5,83h-97c-1.9,0-3.5-1.6-3.5-3.5l0,0c0-1.9,1.6-3.5,3.5-3.5h97c1.9,0,3.5,1.6,3.5,3.5v0
	C114,81.4,112.4,83,110.5,83z"/>
<path class="st0" d="M110.5,94h-97c-1.9,0-3.5-1.6-3.5-3.5l0,0c0-1.9,1.6-3.5,3.5-3.5h97c1.9,0,3.5,1.6,3.5,3.5v0
	C114,92.4,112.4,94,110.5,94z"/>
<path class="st0" d="M110.5,120h-97c-1.9,0-3.5-1.6-3.5-3.5l0,0c0-1.9,1.6-3.5,3.5-3.5h97c1.9,0,3.5,1.6,3.5,3.5v0
	C114,118.4,112.4,120,110.5,120z"/>
</svg>
